{
  "accessors": [
    {
      "bufferView": 2,
      "componentType": 5126,
      "count": 1424,
      "max": [
        1.0,
        1.0,
        11.081242561340332
      ],
      "min": [
        -1.0,
        -1.0,
        -0.08937740325927734
      ],
      "type": "VEC3"
    },
    {
      "bufferView": 2,
      "byteOffset": 17088,
      "componentType": 5126,
      "count": 1424,
      "max": [
        0.991445004940033,
        1.0,
        1.0
      ],
      "min": [
        -0.991445004940033,
        -1.0,
        -1.0
      ],
      "type": "VEC3"
    },
    {
      "bufferView": 1,
      "componentType": 5126,
      "count": 1424,
      "max": [
        0.0,
        0.0
      ],
      "min": [
        0.0,
        0.0
      ],
      "type": "VEC2"
    },
    {
      "bufferView": 0,
      "componentType": 5125,
      "count": 2316,
      "type": "SCALAR"
    },
    {
      "bufferView": 2,
      "byteOffset": 34176,
      "componentType": 5126,
      "count": 72,
      "max": [
        -0.6790900230407715,
        1.0142946243286133,
        -0.10912307351827621
      ],
      "min": [
        -2.7146401405334473,
        -1.0,
        -0.2095319777727127
      ],
      "type": "VEC3"
    },
    {
      "bufferView": 2,
      "byteOffset": 35040,
      "componentType": 5126,
      "count": 72,
      "max": [
        0.9238795638084412,
        0.9238796234130859,
        1.0
      ],
      "min": [
        -0.9238795638084412,
        -0.9238795638084412,
        -1.0
      ],
      "type": "VEC3"
    },
    {
      "bufferView": 1,
      "byteOffset": 11392,
      "componentType": 5126,
      "count": 72,
      "max": [
        0.0,
        0.0
      ],
      "min": [
        0.0,
        0.0
      ],
      "type": "VEC2"
    },
    {
      "bufferView": 0,
      "byteOffset": 9264,
      "componentType": 5125,
      "count": 114,
      "type": "SCALAR"
    },
    {
      "bufferView": 2,
      "byteOffset": 35904,
      "componentType": 5126,
      "count": 36,
      "max": [
        -0.7583839893341064,
        0.920706033706665,
        -0.2095319777727127
      ],
      "min": [
        -2.5997960567474365,
        -0.920706033706665,
        -0.2095319777727127
      ],
      "type": "VEC3"
    },
    {
      "bufferView": 2,
      "byteOffset": 36336,
      "componentType": 5126,
      "count": 36,
      "max": [
        3.333404663408146e-07,
        0.0,
        1.0
      ],
      "min": [
        -3.3334021054542973e-07,
        0.0,
        1.0
      ],
      "type": "VEC3"
    },
    {
      "bufferView": 1,
      "byteOffset": 11968,
      "componentType": 5126,
      "count": 36,
      "max": [
        0.0,
        0.0
      ],
      "min": [
        0.0,
        0.0
      ],
      "type": "VEC2"
    },
    {
      "bufferView": 0,
      "byteOffset": 9720,
      "componentType": 5125,
      "count": 66,
      "type": "SCALAR"
    },
    {
      "bufferView": 2,
      "byteOffset": 36768,
      "componentType": 5126,
      "count": 46,
      "max": [
        -0.6790900230407715,
        1.0142946243286133,
        -0.2095319777727127
      ],
      "min": [
        -2.7146401405334473,
        -1.0,
        -0.2095319777727127
      ],
      "type": "VEC3"
    },
    {
      "bufferView": 2,
      "byteOffset": 37320,
      "componentType": 5126,
      "count": 46,
      "max": [
        7.112413413778995e-07,
        0.0,
        1.0
      ],
      "min": [
        -5.08147763866873e-07,
        0.0,
        -1.0
      ],
      "type": "VEC3"
    },
    {
      "bufferView": 1,
      "byteOffset": 12256,
      "componentType": 5126,
      "count": 46,
      "max": [
        0.0,
        0.0
      ],
      "min": [
        0.0,
        0.0
      ],
      "type": "VEC2"
    },
    {
      "bufferView": 0,
      "byteOffset": 9984,
      "componentType": 5125,
      "count": 96,
      "type": "SCALAR"
    },
    {
      "bufferView": 2,
      "byteOffset": 37872,
      "componentType": 5126,
      "count": 282,
      "max": [
        1.1875,
        0.39100003242492676,
        0.0
      ],
      "min": [
        -1.1575000286102295,
        -0.30900001525878906,
        0.0
      ],
      "type": "VEC3"
    },
    {
      "bufferView": 2,
      "byteOffset": 41256,
      "componentType": 5126,
      "count": 282,
      "max": [
        0.0,
        0.0,
        1.0
      ],
      "min": [
        0.0,
        0.0,
        1.0
      ],
      "type": "VEC3"
    },
    {
      "bufferView": 1,
      "byteOffset": 12624,
      "componentType": 5126,
      "count": 282,
      "max": [
        1.0,
        0.0
      ],
      "min": [
        0.0,
        0.0
      ],
      "type": "VEC2"
    },
    {
      "bufferView": 0,
      "byteOffset": 10368,
      "componentType": 5125,
      "count": 828,
      "type": "SCALAR"
    },
    {
      "bufferView": 2,
      "byteOffset": 44640,
      "componentType": 5126,
      "count": 1984,
      "max": [
        0.9999997019767761,
        1.0,
        1.0
      ],
      "min": [
        -0.9999990463256836,
        -0.9999993443489075,
        -1.0
      ],
      "type": "VEC3"
    },
    {
      "bufferView": 2,
      "byteOffset": 68448,
      "componentType": 5126,
      "count": 1984,
      "max": [
        0.9904384613037109,
        0.9904382824897766,
        0.9951385855674744
      ],
      "min": [
        -0.99043869972229,
        -0.9904385805130005,
        -0.9951385259628296
      ],
      "type": "VEC3"
    },
    {
      "bufferView": 1,
      "byteOffset": 14880,
      "componentType": 5126,
      "count": 1984,
      "max": [
        1.0,
        1.0
      ],
      "min": [
        0.0,
        0.0
      ],
      "type": "VEC2"
    },
    {
      "bufferView": 0,
      "byteOffset": 13680,
      "componentType": 5125,
      "count": 2880,
      "type": "SCALAR"
    },
    {
      "bufferView": 2,
      "byteOffset": 92256,
      "componentType": 5126,
      "count": 1984,
      "max": [
        0.9999997019767761,
        1.0,
        1.0
      ],
      "min": [
        -0.9999990463256836,
        -0.9999993443489075,
        -1.0
      ],
      "type": "VEC3"
    },
    {
      "bufferView": 2,
      "byteOffset": 116064,
      "componentType": 5126,
      "count": 1984,
      "max": [
        0.9904384613037109,
        0.9904382824897766,
        0.9951385855674744
      ],
      "min": [
        -0.99043869972229,
        -0.9904385805130005,
        -0.9951385259628296
      ],
      "type": "VEC3"
    },
    {
      "bufferView": 1,
      "byteOffset": 30752,
      "componentType": 5126,
      "count": 1984,
      "max": [
        1.0,
        1.0
      ],
      "min": [
        0.0,
        0.0
      ],
      "type": "VEC2"
    },
    {
      "bufferView": 0,
      "byteOffset": 25200,
      "componentType": 5125,
      "count": 2880,
      "type": "SCALAR"
    }
  ],
  "asset": {
    "extras": {
      "author": "yAncioso (https://sketchfab.com/yAncioso)",
      "license": "CC-BY-NC-4.0 (http://creativecommons.org/licenses/by-nc/4.0/)",
      "source": "https://sketchfab.com/3d-models/lowpoly-stop-sign-low-poly-free-f4f747279da84dc4a6529400d8df7929",
      "title": "LowPoly Stop Sign - Low Poly Free !"
    },
    "generator": "Sketchfab-15.30.0",
    "version": "2.0"
  },
  "bufferViews": [
    {
      "buffer": 0,
      "byteLength": 36720,
      "name": "floatBufferViews",
      "target": 34963
    },
    {
      "buffer": 0,
      "byteLength": 46624,
      "byteOffset": 36720,
      "byteStride": 8,
      "name": "floatBufferViews",
      "target": 34962
    },
    {
      "buffer": 0,
      "byteLength": 139872,
      "byteOffset": 83344,
      "byteStride": 12,
      "name": "floatBufferViews",
      "target": 34962
    }
  ],
  "buffers": [
    {
      "byteLength": 223216,
      "uri": "scene.bin"
    }
  ],
  "materials": [
    {
      "doubleSided": true,
      "name": "Text__0",
      "pbrMetallicRoughness": {
        "metallicFactor": 0.0,
        "roughnessFactor": 0.6
      }
    },
    {
      "doubleSided": true,
      "name": "Material.001",
      "pbrMetallicRoughness": {
        "baseColorFactor": [
          0.0946254,
          0.0946254,
          0.0946254,
          1.0
        ],
        "metallicFactor": 0.0,
        "roughnessFactor": 0.9841795087008078
      }
    },
    {
      "doubleSided": true,
      "name": "Material.004",
      "pbrMetallicRoughness": {
        "baseColorFactor": [
          0.0946254,
          0.0946254,
          0.0946254,
          1.0
        ],
        "metallicFactor": 0.0,
        "roughnessFactor": 0.9788411173201892
      }
    },
    {
      "doubleSided": true,
      "name": "Material.002",
      "pbrMetallicRoughness": {
        "baseColorFactor": [
          0.8,
          0.0421724,
          0.0307949,
          1.0
        ],
        "metallicFactor": 0.0,
        "roughnessFactor": 0.9547274290635873
      }
    },
    {
      "doubleSided": true,
      "name": "Material.003",
      "pbrMetallicRoughness": {
        "baseColorFactor": [
          0.8,
          0.8,
          0.8,
          1.0
        ],
        "metallicFactor": 0.0,
        "roughnessFactor": 0.8211145618000169
      }
    }
  ],
  "meshes": [
    {
      "name": "Circle_Material.001_0",
      "primitives": [
        {
          "attributes": {
            "NORMAL": 1,
            "POSITION": 0,
            "TEXCOORD_0": 2
          },
          "indices": 3,
          "material": 1,
          "mode": 4
        }
      ]
    },
    {
      "name": "Circle.001_Material.004_0",
      "primitives": [
        {
          "attributes": {
            "NORMAL": 5,
            "POSITION": 4,
            "TEXCOORD_0": 6
          },
          "indices": 7,
          "material": 2,
          "mode": 4
        }
      ]
    },
    {
      "name": "Circle.001_Material.002_0",
      "primitives": [
        {
          "attributes": {
            "NORMAL": 9,
            "POSITION": 8,
            "TEXCOORD_0": 10
          },
          "indices": 11,
          "material": 3,
          "mode": 4
        }
      ]
    },
    {
      "name": "Circle.001_Material.003_0",
      "primitives": [
        {
          "attributes": {
            "NORMAL": 13,
            "POSITION": 12,
            "TEXCOORD_0": 14
          },
          "indices": 15,
          "material": 4,
          "mode": 4
        }
      ]
    },
    {
      "name": "Text__0",
      "primitives": [
        {
          "attributes": {
            "NORMAL": 17,
            "POSITION": 16,
            "TEXCOORD_0": 18
          },
          "indices": 19,
          "material": 0,
          "mode": 4
        }
      ]
    },
    {
      "name": "Sphere__0",
      "primitives": [
        {
          "attributes": {
            "NORMAL": 21,
            "POSITION": 20,
            "TEXCOORD_0": 22
          },
          "indices": 23,
          "material": 0,
          "mode": 4
        }
      ]
    },
    {
      "name": "Sphere.001__0",
      "primitives": [
        {
          "attributes": {
            "NORMAL": 25,
            "POSITION": 24,
            "TEXCOORD_0": 26
          },
          "indices": 27,
          "material": 0,
          "mode": 4
        }
      ]
    }
  ],
  "nodes": [
    {
      "children": [
        1
      ],
      "matrix": [
        1.0,
        0.0,
        0.0,
        0.0,
        0.0,
        2.220446049250313e-16,
        -1.0,
        0.0,
        0.0,
        1.0,
        2.220446049250313e-16,
        0.0,
        0.0,
        0.0,
        0.0,
        1.0
      ],
      "name": "Sketchfab_model"
    },
    {
      "children": [
        2
      ],
      "matrix": [
        0.009999999776482582,
        0.0,
        0.0,
        0.0,
        0.0,
        0.0,
        0.009999999776482582,
        0.0,
        0.0,
        -0.009999999776482582,
        0.0,
        0.0,
        0.0,
        0.0,
        0.0,
        1.0
      ],
      "name": "622e811271bc4cca96448002b34ad18c.fbx"
    },
    {
      "children": [
        3,
        6,
        8,
        10,
        14,
        16,
        18
      ],
      "name": "RootNode"
    },
    {
      "children": [
        4
      ],
      "matrix": [
        -29.086477364379697,
        -5.518905590722295,
        -95.51711910171437,
        0.0,
        56.63932069164076,
        79.46722539115298,
        -21.839126361216156,
        0.0,
        77.11007920637729,
        -60.452475336912016,
        -19.988344364310564,
        0.0,
        407.6245422363281,
        590.38623046875,
        -100.54539489746094,
        1.0
      ],
      "name": "Light"
    },
    {
      "children": [
        5
      ],
      "matrix": [
        1.0,
        0.0,
        0.0,
        0.0,
        0.0,
        2.220446049250313e-16,
        1.0,
        0.0,
        0.0,
        -1.0,
        2.220446049250313e-16,
        0.0,
        0.0,
        0.0,
        0.0,
        1.0
      ],
      "name": "Object_4"
    },
    {
      "name": "Object_5"
    },
    {
      "children": [
        7
      ],
      "matrix": [
        -65.1558127516791,
        -44.52713915455176,
        -61.417049289096546,
        0.0,
        -32.401349332924404,
        89.53957282709818,
        -30.5420854760369,
        0.0,
        68.59207001076241,
        8.666908837178815e-06,
        -72.76761921184274,
        0.0,
        735.88916015625,
        495.8309326171875,
        692.5791015625,
        1.0
      ],
      "name": "Camera"
    },
    {
      "name": "Object_7"
    },
    {
      "children": [
        9
      ],
      "matrix": [
        100.0,
        0.0,
        0.0,
        0.0,
        0.0,
        -1.629206793918314e-05,
        -99.99999999999868,
        0.0,
        0.0,
        99.99999999999868,
        -1.629206793918314e-05,
        0.0,
        0.0,
        0.0,
        0.0,
        1.0
      ],
      "name": "Circle"
    },
    {
      "mesh": 0,
      "name": "Circle_Material.001_0"
    },
    {
      "children": [
        11,
        12,
        13
      ],
      "matrix": [
        1.4715614453464797e-05,
        -194.914223799301,
        -78.37456113651723,
        0.0,
        9.943577435883325e-06,
        78.37456113651794,
        -194.914223799301,
        0.0,
        132.67407226562455,
        6.279736949224015e-06,
        9.29345483653376e-06,
        0.0,
        -20.761341094970703,
        756.8087768554688,
        -133.60836791992188,
        1.0
      ],
      "name": "Circle.001"
    },
    {
      "mesh": 1,
      "name": "Circle.001_Material.004_0"
    },
    {
      "mesh": 2,
      "name": "Circle.001_Material.002_0"
    },
    {
      "mesh": 3,
      "name": "Circle.001_Material.003_0"
    },
    {
      "children": [
        15
      ],
      "matrix": [
        2.4956751983528143e-05,
        4.240981859695474e-22,
        128.17581176757568,
        0.0,
        -5.602744498628172e-06,
        128.17581176757798,
        1.09089463114504e-12,
        0.0,
        -128.17581176757557,
        -5.602744498628278e-06,
        2.4956751983528143e-05,
        0.0,
        -49.61795425415039,
        1084.59326171875,
        7.548828601837158,
        1.0
      ],
      "name": "Text"
    },
    {
      "mesh": 4,
      "name": "Text__0"
    },
    {
      "children": [
        17
      ],
      "matrix": [
        5.207530975341797,
        0.0,
        0.0,
        0.0,
        -0.0,
        -1.4636370003147988e-06,
        -8.983739852905154,
        0.0,
        0.0,
        8.983739852905154,
        -1.4636370003147988e-06,
        0.0,
        -47.298736572265625,
        1244.3135986328125,
        -5.899248123168945,
        1.0
      ],
      "name": "Sphere"
    },
    {
      "mesh": 5,
      "name": "Sphere__0"
    },
    {
      "children": [
        19
      ],
      "matrix": [
        5.207530975341797,
        0.0,
        0.0,
        0.0,
        -0.0,
        -1.4636370003147988e-06,
        -8.983739852905154,
        0.0,
        0.0,
        8.983739852905154,
        -1.4636370003147988e-06,
        0.0,
        -47.298736572265625,
        919.2006225585938,
        -5.899248123168945,
        1.0
      ],
      "name": "Sphere.001"
    },
    {
      "mesh": 6,
      "name": "Sphere.001__0"
    }
  ],
  "scene": 0,
  "scenes": [
    {
      "name": "Sketchfab_Scene",
      "nodes": [
        0
      ]
    }
  ]
}
