{
  "accessors": [
    {
      "bufferView": 2,
      "componentType": 5126,
      "count": 256,
      "max": [
        2.079751968383789,
        1.5461252927780151,
        -8.78230094909668
      ],
      "min": [
        -2.03759765625,
        -1.21480393409729,
        -10.074803352355957
      ],
      "type": "VEC3"
    },
    {
      "bufferView": 2,
      "byteOffset": 3072,
      "componentType": 5126,
      "count": 256,
      "max": [
        0.9976876378059387,
        0.8610653877258301,
        0.9326016902923584
      ],
      "min": [
        -0.9976876378059387,
        -0.9880698323249817,
        -0.9999570846557617
      ],
      "type": "VEC3"
    },
    {
      "bufferView": 3,
      "componentType": 5126,
      "count": 256,
      "max": [
        1.0,
        1.0,
        1.0,
        1.0
      ],
      "min": [
        1.0,
        1.0,
        1.0,
        1.0
      ],
      "type": "VEC4"
    },
    {
      "bufferView": 1,
      "componentType": 5126,
      "count": 256,
      "max": [
        0.2500000298023224,
        0.75
      ],
      "min": [
        0.0,
        0.0
      ],
      "type": "VEC2"
    },
    {
      "bufferView": 0,
      "componentType": 5125,
      "count": 1416,
      "type": "SCALAR"
    },
    {
      "bufferView": 2,
      "byteOffset": 6144,
      "componentType": 5126,
      "count": 207,
      "max": [
        2.7723233699798584,
        1.3910263776779175,
        3.436491012573242
      ],
      "min": [
        -2.7723233699798584,
        -1.2172670364379883,
        -1.28592050075531
      ],
      "type": "VEC3"
    },
    {
      "bufferView": 2,
      "byteOffset": 8628,
      "componentType": 5126,
      "count": 207,
      "max": [
        0.9992905855178833,
        0.9994385838508606,
        0.947780191898346
      ],
      "min": [
        -0.9992905855178833,
        -0.9999580979347229,
        -0.9400917887687683
      ],
      "type": "VEC3"
    },
    {
      "bufferView": 3,
      "byteOffset": 4096,
      "componentType": 5126,
      "count": 207,
      "max": [
        1.0,
        1.0,
        1.0,
        1.0
      ],
      "min": [
        1.0,
        1.0,
        1.0,
        1.0
      ],
      "type": "VEC4"
    },
    {
      "bufferView": 1,
      "byteOffset": 2048,
      "componentType": 5126,
      "count": 207,
      "max": [
        0.875,
        1.0
      ],
      "min": [
        0.375,
        0.0
      ],
      "type": "VEC2"
    },
    {
      "bufferView": 0,
      "byteOffset": 5664,
      "componentType": 5125,
      "count": 936,
      "type": "SCALAR"
    },
    {
      "bufferView": 2,
      "byteOffset": 11112,
      "componentType": 5126,
      "count": 438,
      "max": [
        3.813199520111084,
        0.39983484148979187,
        0.8998302221298218
      ],
      "min": [
        -3.8131988048553467,
        -0.6641321182250977,
        -3.4040169715881348
      ],
      "type": "VEC3"
    },
    {
      "bufferView": 2,
      "byteOffset": 16368,
      "componentType": 5126,
      "count": 438,
      "max": [
        0.9991772770881653,
        0.9990958571434021,
        0.4995175004005432
      ],
      "min": [
        -0.9991772770881653,
        -0.9996928572654724,
        -0.9977753162384033
      ],
      "type": "VEC3"
    },
    {
      "bufferView": 3,
      "byteOffset": 7408,
      "componentType": 5126,
      "count": 438,
      "max": [
        1.0,
        1.0,
        1.0,
        1.0
      ],
      "min": [
        1.0,
        1.0,
        1.0,
        1.0
      ],
      "type": "VEC4"
    },
    {
      "bufferView": 1,
      "byteOffset": 3704,
      "componentType": 5126,
      "count": 438,
      "max": [
        0.625,
        1.0
      ],
      "min": [
        0.0,
        0.0
      ],
      "type": "VEC2"
    },
    {
      "bufferView": 0,
      "byteOffset": 9408,
      "componentType": 5125,
      "count": 1956,
      "type": "SCALAR"
    },
    {
      "bufferView": 2,
      "byteOffset": 21624,
      "componentType": 5126,
      "count": 1706,
      "max": [
        0.8085710406303406,
        1.2522404193878174,
        5.525508880615234
      ],
      "min": [
        -0.8656055331230164,
        -0.708096981048584,
        3.0043702125549316
      ],
      "type": "VEC3"
    },
    {
      "bufferView": 2,
      "byteOffset": 42096,
      "componentType": 5126,
      "count": 1706,
      "max": [
        0.9988463521003723,
        0.9999974370002747,
        0.995179295539856
      ],
      "min": [
        -0.998845636844635,
        -0.999951958656311,
        -0.9969406127929688
      ],
      "type": "VEC3"
    },
    {
      "bufferView": 3,
      "byteOffset": 14416,
      "componentType": 5126,
      "count": 1706,
      "max": [
        0.9960784316062927,
        0.9960784316062927,
        0.9960784316062927,
        1.0
      ],
      "min": [
        0.9882352948188782,
        0.9882352948188782,
        0.9882352948188782,
        1.0
      ],
      "type": "VEC4"
    },
    {
      "bufferView": 1,
      "byteOffset": 7208,
      "componentType": 5126,
      "count": 1706,
      "max": [
        1.2196916341781616,
        0.9998810887336731
      ],
      "min": [
        -0.20087754726409912,
        9.368732571601868e-05
      ],
      "type": "VEC2"
    },
    {
      "bufferView": 0,
      "byteOffset": 17232,
      "componentType": 5125,
      "count": 9684,
      "type": "SCALAR"
    },
    {
      "bufferView": 2,
      "byteOffset": 62568,
      "componentType": 5126,
      "count": 252,
      "max": [
        2.2096381187438965,
        1.2639777660369873,
        -1.16475248336792
      ],
      "min": [
        -2.1674857139587402,
        -1.3721369504928589,
        -9.711588859558105
      ],
      "type": "VEC3"
    },
    {
      "bufferView": 2,
      "byteOffset": 65592,
      "componentType": 5126,
      "count": 252,
      "max": [
        0.9996816515922546,
        0.9981486201286316,
        0.9999926090240479
      ],
      "min": [
        -0.9996816515922546,
        -0.9997116923332214,
        -0.9818283915519714
      ],
      "type": "VEC3"
    },
    {
      "bufferView": 3,
      "byteOffset": 41712,
      "componentType": 5126,
      "count": 252,
      "max": [
        1.0,
        1.0,
        1.0,
        1.0
      ],
      "min": [
        1.0,
        1.0,
        1.0,
        1.0
      ],
      "type": "VEC4"
    },
    {
      "bufferView": 1,
      "byteOffset": 20856,
      "componentType": 5126,
      "count": 252,
      "max": [
        0.9583052396774292,
        1.2775185108184814
      ],
      "min": [
        0.08332210779190063,
        0.04783831536769867
      ],
      "type": "VEC2"
    },
    {
      "bufferView": 0,
      "byteOffset": 55968,
      "componentType": 5125,
      "count": 912,
      "type": "SCALAR"
    }
  ],
  "asset": {
    "extras": {
      "author": "_GStep_ (https://sketchfab.com/golovstepa)",
      "license": "CC-BY-4.0 (http://creativecommons.org/licenses/by/4.0/)",
      "source": "https://sketchfab.com/3d-models/low-poly-man-andrew-6323bdacffb74192a96ae18602d3acc2",
      "title": "Low Poly man Andrew"
    },
    "generator": "Sketchfab-15.40.0",
    "version": "2.0"
  },
  "bufferViews": [
    {
      "buffer": 0,
      "byteLength": 59616,
      "name": "floatBufferViews",
      "target": 34963
    },
    {
      "buffer": 0,
      "byteLength": 22872,
      "byteOffset": 59616,
      "byteStride": 8,
      "name": "floatBufferViews",
      "target": 34962
    },
    {
      "buffer": 0,
      "byteLength": 68616,
      "byteOffset": 82488,
      "byteStride": 12,
      "name": "floatBufferViews",
      "target": 34962
    },
    {
      "buffer": 0,
      "byteLength": 45744,
      "byteOffset": 151104,
      "byteStride": 16,
      "name": "floatBufferViews",
      "target": 34962
    }
  ],
  "buffers": [
    {
      "byteLength": 196848,
      "uri": "scene.bin"
    }
  ],
  "images": [
    {
      "uri": "textures/Material.004_baseColor.jpeg"
    },
    {
      "uri": "textures/Material.001_baseColor.png"
    }
  ],
  "materials": [
    {
      "doubleSided": true,
      "name": "Material",
      "pbrMetallicRoughness": {
        "baseColorFactor": [
          0.8,
          0.8,
          0.8,
          1.0
        ],
        "metallicFactor": 0.0,
        "roughnessFactor": 0.8211145618000169
      }
    },
    {
      "doubleSided": true,
      "name": "Material.002",
      "pbrMetallicRoughness": {
        "baseColorFactor": [
          0.690279,
          0.325461,
          0.221377,
          1.0
        ],
        "metallicFactor": 0.0,
        "roughnessFactor": 0.9115620710148922
      }
    },
    {
      "doubleSided": true,
      "name": "Material.004",
      "pbrMetallicRoughness": {
        "baseColorTexture": {
          "index": 0
        },
        "metallicFactor": 0.0,
        "roughnessFactor": 0.8211145618000169
      }
    },
    {
      "doubleSided": true,
      "name": "Material.001",
      "pbrMetallicRoughness": {
        "baseColorTexture": {
          "index": 1
        },
        "metallicFactor": 0.0,
        "roughnessFactor": 0.8211145618000169
      }
    }
  ],
  "meshes": [
    {
      "name": "Cube_Material_0",
      "primitives": [
        {
          "attributes": {
            "COLOR_0": 2,
            "NORMAL": 1,
            "POSITION": 0,
            "TEXCOORD_0": 3
          },
          "indices": 4,
          "material": 0,
          "mode": 4
        }
      ]
    },
    {
      "name": "Cube.001_Material_0",
      "primitives": [
        {
          "attributes": {
            "COLOR_0": 7,
            "NORMAL": 6,
            "POSITION": 5,
            "TEXCOORD_0": 8
          },
          "indices": 9,
          "material": 0,
          "mode": 4
        }
      ]
    },
    {
      "name": "Cube.002_Material.002_0",
      "primitives": [
        {
          "attributes": {
            "COLOR_0": 12,
            "NORMAL": 11,
            "POSITION": 10,
            "TEXCOORD_0": 13
          },
          "indices": 14,
          "material": 1,
          "mode": 4
        }
      ]
    },
    {
      "name": "Cube.003_Material.004_0",
      "primitives": [
        {
          "attributes": {
            "COLOR_0": 17,
            "NORMAL": 16,
            "POSITION": 15,
            "TEXCOORD_0": 18
          },
          "indices": 19,
          "material": 2,
          "mode": 4
        }
      ]
    },
    {
      "name": "Cube.004_Material.001_0",
      "primitives": [
        {
          "attributes": {
            "COLOR_0": 22,
            "NORMAL": 21,
            "POSITION": 20,
            "TEXCOORD_0": 23
          },
          "indices": 24,
          "material": 3,
          "mode": 4
        }
      ]
    }
  ],
  "nodes": [
    {
      "children": [
        1
      ],
      "matrix": [
        1.0,
        0.0,
        0.0,
        0.0,
        0.0,
        2.220446049250313e-16,
        -1.0,
        0.0,
        0.0,
        1.0,
        2.220446049250313e-16,
        0.0,
        0.0,
        0.0,
        0.0,
        1.0
      ],
      "name": "Sketchfab_model"
    },
    {
      "children": [
        2
      ],
      "matrix": [
        0.009999999776482582,
        0.0,
        0.0,
        0.0,
        0.0,
        0.0,
        0.009999999776482582,
        0.0,
        0.0,
        -0.009999999776482582,
        0.0,
        0.0,
        0.0,
        0.0,
        0.0,
        1.0
      ],
      "name": "456e940c4dcb403d972817dd2f2f703c.fbx"
    },
    {
      "children": [
        3,
        5,
        8,
        10,
        12,
        14,
        16
      ],
      "name": "RootNode"
    },
    {
      "children": [
        4
      ],
      "matrix": [
        16.862773895263672,
        0.0,
        0.0,
        0.0,
        0.0,
        -2.747294579447197e-06,
        -16.862773895263448,
        0.0,
        0.0,
        16.862773895263448,
        -2.747294579447197e-06,
        0.0,
        338.38970947265625,
        -3.055661916732788,
        -218.27867126464844,
        1.0
      ],
      "name": "Cube"
    },
    {
      "mesh": 0,
      "name": "Cube_Material_0"
    },
    {
      "children": [
        6
      ],
      "matrix": [
        -29.086477364379697,
        -5.518905590722295,
        -95.51711910171437,
        0.0,
        56.63932069164076,
        79.46722539115298,
        -21.839126361216156,
        0.0,
        77.11007920637729,
        -60.452475336912016,
        -19.988344364310564,
        0.0,
        407.6245422363281,
        590.38623046875,
        -100.54539489746094,
        1.0
      ],
      "name": "Light"
    },
    {
      "children": [
        7
      ],
      "matrix": [
        1.0,
        0.0,
        0.0,
        0.0,
        0.0,
        2.220446049250313e-16,
        1.0,
        0.0,
        0.0,
        -1.0,
        2.220446049250313e-16,
        0.0,
        0.0,
        0.0,
        0.0,
        1.0
      ],
      "name": "Object_6"
    },
    {
      "name": "Object_7"
    },
    {
      "children": [
        9
      ],
      "matrix": [
        -65.1558127516791,
        -44.52713915455176,
        -61.417049289096546,
        0.0,
        -32.401349332924404,
        89.53957282709818,
        -30.5420854760369,
        0.0,
        68.59207001076241,
        8.666908837178815e-06,
        -72.76761921184274,
        0.0,
        735.88916015625,
        495.8309326171875,
        692.5791015625,
        1.0
      ],
      "name": "Camera"
    },
    {
      "name": "Object_9"
    },
    {
      "children": [
        11
      ],
      "matrix": [
        16.862773895263672,
        0.0,
        0.0,
        0.0,
        0.0,
        -2.747294579447197e-06,
        -16.862773895263448,
        0.0,
        0.0,
        16.862773895263448,
        -2.747294579447197e-06,
        0.0,
        338.38970947265625,
        -3.055661916732788,
        -218.27867126464844,
        1.0
      ],
      "name": "Cube.001"
    },
    {
      "mesh": 1,
      "name": "Cube.001_Material_0"
    },
    {
      "children": [
        13
      ],
      "matrix": [
        16.862773895263672,
        0.0,
        0.0,
        0.0,
        0.0,
        -2.747294579447197e-06,
        -16.862773895263448,
        0.0,
        0.0,
        16.862773895263448,
        -2.747294579447197e-06,
        0.0,
        338.38970947265625,
        -3.055661916732788,
        -218.27867126464844,
        1.0
      ],
      "name": "Cube.002"
    },
    {
      "mesh": 2,
      "name": "Cube.002_Material.002_0"
    },
    {
      "children": [
        15
      ],
      "matrix": [
        16.862773895263672,
        0.0,
        0.0,
        0.0,
        0.0,
        -2.747294579447197e-06,
        -16.862773895263448,
        0.0,
        0.0,
        16.862773895263448,
        -2.747294579447197e-06,
        0.0,
        338.38970947265625,
        -3.055661916732788,
        -218.27867126464844,
        1.0
      ],
      "name": "Cube.003"
    },
    {
      "mesh": 3,
      "name": "Cube.003_Material.004_0"
    },
    {
      "children": [
        17
      ],
      "matrix": [
        16.862773895263672,
        0.0,
        0.0,
        0.0,
        0.0,
        -2.747294579447197e-06,
        -16.862773895263448,
        0.0,
        0.0,
        16.862773895263448,
        -2.747294579447197e-06,
        0.0,
        338.38970947265625,
        -3.055661916732788,
        -218.27867126464844,
        1.0
      ],
      "name": "Cube.004"
    },
    {
      "mesh": 4,
      "name": "Cube.004_Material.001_0"
    }
  ],
  "samplers": [
    {
      "magFilter": 9729,
      "minFilter": 9987,
      "wrapS": 10497,
      "wrapT": 10497
    }
  ],
  "scene": 0,
  "scenes": [
    {
      "name": "Sketchfab_Scene",
      "nodes": [
        0
      ]
    }
  ],
  "textures": [
    {
      "sampler": 0,
      "source": 0
    },
    {
      "sampler": 0,
      "source": 1
    }
  ]
}
